<svg xmlns="http://www.w3.org/2000/svg" width="62.261" height="64" viewBox="0 0 62.261 64">
  <g id="group_5" data-name="group 5" transform="translate(-90.01 -185.935)">
    <path id="path_12" data-name="path 12" d="M112.722,205.235l2.917,2.891a.978.978,0,0,1,0,1.385l-5.92,5.9a2.752,2.752,0,0,1-1.683.693h-6.691c-.543,0-.672-.311-.289-.692l5.954-5.9a.974.974,0,0,0,0-1.383l-2.938-2.912a.99.99,0,0,1,0-1.4l10.268-10.179a1,1,0,0,1,1.4,0l2.917,2.891a.975.975,0,0,1,0,1.383l-5.961,5.909A1.008,1.008,0,0,0,112.722,205.235Zm32.573,4.244a.975.975,0,0,0,0-1.383L123.229,186.22a1,1,0,0,0-1.4,0l-2.916,2.891a.974.974,0,0,0,0,1.383l13.528,13.411a2.706,2.706,0,0,1,.7,1.669v14.013a.985.985,0,0,1-.987.978H111.627a2.754,2.754,0,0,0-1.684.692l-4.7,4.661c-.383.381-.253.692.29.692h32.695a1.006,1.006,0,0,0,1.009-.979V211.621c0-.538.314-.667.7-.286l1.045,1.035a1,1,0,0,0,1.4,0Z" transform="translate(-2.07 0)" fill="#212121"/>
    <g id="group_4" data-name="group 4" transform="translate(90.01 237.697)">
      <g id="group_3" data-name="group 3">
        <path id="path_13" data-name="path 13" d="M94.875,252.72c-.163.214-.2.239-.315.239-.088,0-.088,0-.391-.252a1.681,1.681,0,0,0-.945-.29,1.072,1.072,0,0,0-1.185.945c0,.442.29.681,1.273,1.047a4.872,4.872,0,0,1,1.689.844,2.211,2.211,0,0,1,.744,1.765,2.712,2.712,0,0,1-2.937,2.773,3.392,3.392,0,0,1-2.521-1.109c-.2-.227-.277-.353-.277-.454s.012-.126.2-.315l.416-.4c.177-.164.214-.189.3-.189a.283.283,0,0,1,.227.126c.391.454.391.454.63.592a2.071,2.071,0,0,0,.984.252,1.2,1.2,0,0,0,1.285-1.185,1,1,0,0,0-.454-.844,6.414,6.414,0,0,0-1.172-.5c-1.525-.554-2.079-1.159-2.079-2.269a2.465,2.465,0,0,1,2.634-2.445,3.847,3.847,0,0,1,2.256.756.289.289,0,0,1,.1.214c0,.075-.025.126-.151.29Z" transform="translate(-90.01 -250.147)" fill="#040000"/>
        <path id="path_14" data-name="path 14" d="M101.694,254.625a1.946,1.946,0,0,1,1.715-.882,2.059,2.059,0,0,1,1.588.668,2.117,2.117,0,0,1,.429,1.537v3c.013.366-.063.442-.429.429h-.668c-.366.013-.441-.063-.428-.429V256.39a1.752,1.752,0,0,0-.151-.908,1.013,1.013,0,0,0-.9-.441c-.781,0-1.16.492-1.16,1.538v2.37c.013.366-.063.442-.428.429H100.6c-.365.013-.441-.063-.428-.429v-8.584c-.013-.366.063-.441.428-.429h.669c.365-.012.441.063.428.429Z" transform="translate(-91.952 -249.935)" fill="#040000"/>
        <path id="path_15" data-name="path 15" d="M111.627,251.792a.914.914,0,1,1-.907-.92A.914.914,0,0,1,111.627,251.792Zm-.151,7.336c.013.366-.062.442-.428.429h-.668c-.366.013-.442-.063-.429-.429v-4.6c-.013-.366.063-.442.429-.429h.668c.366-.013.441.063.428.429Z" transform="translate(-93.794 -250.114)" fill="#040000"/>
        <path id="path_16" data-name="path 16" d="M116.747,254.625a2.243,2.243,0,0,1,1.815-.882,2.915,2.915,0,0,1-.025,5.81,2.118,2.118,0,0,1-1.79-.882v.277c.013.366-.063.442-.429.429h-.668c-.366.013-.441-.063-.429-.429v-8.584c-.012-.366.063-.441.429-.429h.668c.366-.012.442.063.429.429Zm-.164,2.016a1.544,1.544,0,0,0,1.538,1.537,1.531,1.531,0,1,0-1.538-1.537Z" transform="translate(-94.83 -249.935)" fill="#040000"/>
        <path id="path_17" data-name="path 17" d="M129.423,259.571a2.1,2.1,0,0,1-1.777.882,2.916,2.916,0,0,1-.038-5.81,2.211,2.211,0,0,1,1.815.882v-.277c-.013-.366.063-.442.442-.429h.655c.378-.013.454.063.441.429v4.6c.013.366-.063.442-.441.429h-.655c-.378.013-.455-.063-.442-.429Zm-2.887-2.029a1.525,1.525,0,1,0,1.525-1.525A1.533,1.533,0,0,0,126.537,257.542Z" transform="translate(-96.693 -250.835)" fill="#040000"/>
        <path id="path_18" data-name="path 18" d="M137.354,251.792a.914.914,0,1,1-.907-.92A.915.915,0,0,1,137.354,251.792Z" transform="translate(-98.713 -250.114)" fill="#040000"/>
        <path id="path_19" data-name="path 19" d="M142.474,257.949c0,.819.378,1.248,1.122,1.248s1.109-.429,1.109-1.248v-2.659c-.012-.366.063-.442.429-.429h.668c.366-.013.441.063.429.429V258.2c0,1.474-.945,2.294-2.634,2.294s-2.647-.819-2.647-2.294v-2.912c-.013-.366.063-.442.429-.429h.668c.366-.013.441.063.429.429Z" transform="translate(-99.75 -250.876)" fill="#040000"/>
        <path id="path_20" data-name="path 20" d="M154.209,254.12l.075-.088c.126-.113.126-.113.4-.113h.958c.315,0,.429.063.429.264,0,.088-.05.151-.2.3l-1.954,1.828,2.244,2.5c.164.176.189.226.189.315,0,.189-.113.252-.441.252h-1.185c-.151,0-.164-.013-.34-.214l-1.853-2.13-.164.164v1.752c.013.366-.063.442-.428.429h-.668c-.366.013-.442-.063-.429-.429v-8.584c-.013-.366.063-.441.429-.429h.668c.365-.012.441.063.428.429v5.546Z" transform="translate(-101.642 -249.935)" fill="#040000"/>
        <path id="path_21" data-name="path 21" d="M161.983,257.949c0,.819.379,1.248,1.122,1.248s1.11-.429,1.11-1.248v-2.659c-.013-.366.063-.442.429-.429h.668c.366-.013.441.063.429.429V258.2c0,1.474-.945,2.294-2.635,2.294s-2.646-.819-2.646-2.294v-2.912c-.013-.366.063-.442.429-.429h.668c.365-.013.441.063.428.429Z" transform="translate(-103.48 -250.876)" fill="#040000"/>
      </g>
      <path id="path_22" data-name="path 22" d="M137.239,260.495a3.037,3.037,0,0,1-1.059,2.392c-.235.188-.468.331-.468.126,0-.915,0-2.252,0-2.819,0-.436,0-4.905,0-4.905-.012-.366.063-.442.429-.429h.668c.366-.013.442.063.429.429C137.238,255.289,137.239,260.122,137.239,260.495Z" transform="translate(-98.748 -250.876)" fill="#040000"/>
    </g>
  </g>
</svg>
